Coordinates
version=1
nRows=16
nColumns=36
inDegrees=yes

Units are S.I. units (second, meters, Newtons, ...)
If the header above contains a line with 'inDegrees', this indicates whether rotational values are in degrees (yes) or radians (no).

endheader
time	pelvis_tilt	pelvis_list	pelvis_rotation	pelvis_tx	pelvis_ty	pelvis_tz	hip_flexion_r	hip_adduction_r	hip_rotation_r	knee_angle_r	knee_angle_r_beta	ankle_angle_r	subtalar_angle_r	mtp_angle_r	hip_flexion_l	hip_adduction_l	hip_rotation_l	knee_angle_l	knee_angle_l_beta	ankle_angle_l	subtalar_angle_l	mtp_angle_l	lumbar_extension	lumbar_bending	lumbar_rotation	arm_flex_r	arm_add_r	arm_rot_r	elbow_flex_r	pro_sup_r	arm_flex_l	arm_add_l	arm_rot_l	elbow_flex_l	pro_sup_l
      2.96666670	    -28.11018226	      0.02283523	     -1.64757488	      0.07800311	      0.63297461	     -0.10546708	     90.07605416	    -17.43558837	     -5.77183623	     95.32407599	      1.66371898	     26.80879891	     -4.84884949	     -7.49999987	     92.88110296	    -11.31480382	      0.11147079	     94.33522542	      1.64646028	     27.70861374	      0.96522509	     -7.49999987	    -36.60946664	      0.06433043	      1.79695728	     96.85522236	    -25.49486098	     35.52475565	    112.84865277	    102.23867191	     95.83890959	    -20.18153568	     37.35147329	    107.93993175	     96.83847007
      2.97083330	    -28.18401060	      0.03970738	     -1.76534382	      0.08248495	      0.63034723	     -0.10518409	     90.16803371	    -17.46922958	     -5.71255570	     95.69381251	      1.67017210	     26.92107791	     -5.05100545	     -7.49999987	     92.96201664	    -11.28205123	      0.36399475	     94.71839259	      1.65314781	     27.85391997	      0.87997716	     -7.49999987	    -36.60841517	     -0.00917556	      1.82476267	     96.91010826	    -25.40294225	     35.51984133	    112.91372647	    102.23476017	     95.88792182	    -20.15211526	     37.32964325	    107.98104464	     96.85117710
      2.97500000	    -28.25283470	      0.06104999	     -1.92245902	      0.08186305	      0.62831226	     -0.10751615	     90.40121012	    -17.37094895	     -5.56534645	     96.01790728	      1.67582862	     27.12201192	     -5.57604629	     -7.49999987	     93.18948562	    -11.15273268	      0.55146109	     95.22308296	      1.66195632	     28.33777476	      0.53283092	     -7.49999987	    -36.56155370	     -0.01251756	      1.88241947	     97.07371459	    -25.05407990	     35.42645305	    112.43685402	    101.22632730	     96.03625106	    -19.96514952	     37.19542732	    107.57389009	     95.88908059
      2.97916670	    -28.67852686	      0.10343352	     -2.13390376	      0.08305581	      0.62895988	     -0.10572037	     90.84105618	    -17.11945625	     -5.52799349	     96.09398693	      1.67715646	     26.83314056	     -6.13216782	     -7.49999987	     93.49329506	    -11.22204488	      0.64528501	     95.31718261	      1.66359867	     28.64060200	      0.75532317	     -7.49999987	    -36.37145676	     -0.07386501	      2.04528763	     97.35804375	    -25.17695950	     35.51227754	    113.36485789	    101.00978225	     96.04445027	    -20.27573179	     37.17669785	    108.77807423	     95.82782933
      2.98333330	    -28.68066886	      0.19143623	     -2.24462987	      0.08619854	      0.62918508	     -0.10794979	     90.75769243	    -17.05035161	     -5.42907080	     96.15471354	      1.67821634	     26.95539255	     -6.57133039	     -7.49999987	     93.31056313	    -11.02829617	      0.73107127	     95.46583797	      1.66619320	     28.93563135	      0.36003038	     -7.49999987	    -36.19673134	     -0.08212592	      2.05369128	     97.13262018	    -24.83061973	     35.35292651	    112.56789965	    100.19953285	     95.77918687	    -20.05165040	     37.01554895	    108.07694010	     94.99923695
      2.98750000	    -29.10866147	      0.25928531	     -2.37475086	      0.08843707	      0.63028256	     -0.10664321	     90.90537775	    -16.82805381	     -5.40398795	     95.94075727	      1.67448210	     26.81215469	     -6.77574012	     -7.49999987	     93.37527161	    -11.06469478	      0.75810306	     95.31442459	      1.66355053	     29.23344670	      0.78237523	     -7.49999987	    -35.93576766	     -0.05409879	      2.20257306	     97.22048551	    -24.95622562	     35.41016018	    113.58634363	    100.59271261	     95.54273567	    -20.41574989	     37.02747216	    109.43333598	     95.31259374
      2.99166670	    -29.33600815	      0.31454576	     -2.44251223	      0.08770262	      0.63108659	     -0.10438747	     90.82104295	    -16.50639460	     -5.38349929	     95.62494544	      1.66897015	     26.97400822	     -6.96514922	     -7.49999987	     93.32229446	    -11.08563791	      0.77012291	     95.14800739	      1.66064601	     29.34162384	      0.68859289	     -7.49999987	    -35.82221642	     -0.07814073	      2.23959920	     97.21434288	    -24.76691694	     35.33823388	    113.55876214	    100.16132891	     95.47784075	    -20.51509545	     36.99802063	    109.63296121	     94.80577037
      2.99583330	    -29.47350833	      0.32136485	     -2.49092880	      0.08985973	      0.62960207	     -0.10253439	     90.78119399	    -16.11888020	     -5.27141115	     95.58049177	      1.66819428	     27.29926804	     -6.91290914	     -7.49999987	     93.33069686	    -11.11514544	      0.89019610	     95.12437392	      1.66023352	     29.39771120	      0.41379292	     -7.49999987	    -35.73053007	     -0.08343931	      2.29995893	     97.27341952	    -24.54215545	     35.34550422	    113.61559910	    100.23295710	     95.55694886	    -20.77734565	     37.20167882	    109.95356360	     94.91915205
      3.00000000	    -29.57714748	      0.37322695	     -2.51756295	      0.09194792	      0.63055591	     -0.10708000	     90.63247112	    -16.01271342	     -5.17460579	     95.48676309	      1.66655841	     27.34679387	     -6.93465246	     -7.49999987	     93.31894467	    -10.95813627	      0.82141365	     95.22183404	      1.66193452	     29.42696379	      0.35831591	     -7.49999987	    -35.62529180	     -0.06518025	      2.31262566	     97.33189006	    -24.51616922	     35.32457980	    113.61235427	    100.24818115	     95.59708929	    -20.77492361	     37.21340137	    109.96914914	     94.94447743
      3.00416670	    -29.70409935	      0.39113316	     -2.73455212	      0.09267246	      0.63142624	     -0.10627781	     90.59529034	    -15.70702019	     -5.12228873	     95.33548465	      1.66391810	     27.43499199	     -7.42828019	     -7.49999987	     93.27538795	    -10.93661874	      0.84311971	     95.16119146	      1.66087611	     29.61377669	     -0.23550448	     -7.49999987	    -35.57286155	     -0.09894041	      2.39553492	     97.63046353	    -24.23198425	     35.29398336	    113.64285571	    100.27335852	     95.96133290	    -21.12189171	     37.81047439	    110.42170572	     94.95186157
      3.00833330	    -29.66385218	      0.39918674	     -2.79222489	      0.09343560	      0.63222076	     -0.10376916	     90.38138917	    -15.44719781	     -4.96952277	     95.21184108	      1.66176011	     27.37609684	     -7.74213591	     -7.49999987	     93.12471531	    -10.91844348	      0.87923211	     95.14860247	      1.66065639	     29.35570098	     -0.89012127	     -7.49999987	    -35.63081340	     -0.11948728	      2.23965008	     97.77849259	    -23.76338008	     34.99701754	    113.28556880	    103.21962439	     96.48714066	    -21.53611063	     38.23064424	    110.58597490	     98.79812713
      3.01250000	    -29.74691139	      0.41035664	     -2.91362751	      0.09563679	      0.63218152	     -0.10558403	     90.38171716	    -15.25530890	     -4.83689799	     95.18056918	      1.66121432	     27.14930161	     -8.14376946	     -7.49999987	     93.12092256	    -10.87096645	      0.96912969	     95.23159636	      1.66210491	     29.34533237	     -1.18049748	     -7.49999987	    -35.45882094	     -0.08815831	      2.33388953	     97.90957344	    -23.61030375	     34.87025640	    113.11961779	    102.21900997	     96.70341992	    -21.64364052	     38.50014384	    110.57520338	     97.99998015
      3.01666670	    -29.78102673	      0.39368300	     -3.01100635	      0.09966789	      0.63303094	     -0.10552267	     90.18949964	    -15.04498149	     -4.77336105	     95.15875031	      1.66083351	     26.98838753	     -8.57427392	     -7.49999987	     92.93650808	    -10.87326069	      0.99408492	     95.23696079	      1.66219854	     29.27574578	     -1.70629049	     -7.49999987	    -35.25731520	     -0.02340137	      2.35127165	     97.74902991	    -23.44003035	     34.83041855	    113.13730969	    101.40593509	     96.88086923	    -21.93800540	     39.08018536	    110.71205701	     97.20337440
      3.02083330	    -29.75566555	      0.40251166	     -2.99012708	      0.10277697	      0.63443689	     -0.10443265	     89.86880863	    -14.85064549	     -4.66284110	     95.15531765	      1.66077359	     27.13130161	     -9.15234835	     -7.49999987	     92.59168534	    -10.80603585	      0.99433503	     95.22790736	      1.66204052	     29.36315292	     -2.15248580	     -7.49999987	    -34.96592603	      0.10472377	      2.36836678	     97.46604175	    -23.04489257	     34.72441734	    112.53192423	    100.32637487	     96.71389236	    -21.81788729	     39.26422070	    110.14669529	     96.14636360
      3.02500000	    -29.91321612	      0.45759636	     -2.96642522	      0.10542680	      0.63635887	     -0.10524822	     89.59605244	    -14.68751507	     -4.57043455	     94.88562927	      1.65606664	     27.19801827	     -9.63731560	     -7.49999987	     92.32483397	    -10.69136047	      0.93640781	     95.10616718	      1.65991576	     29.31862097	     -2.44073418	     -7.49999987	    -34.66056399	      0.16116585	      2.31856050	     97.14942275	    -23.03735631	     34.84209762	    113.32502529	    100.66157395	     96.68759929	    -22.22850450	     40.01316124	    111.09663574	     96.41324045
      3.02916670	    -29.96566410	      0.51266704	     -2.88610399	      0.10789415	      0.64031532	     -0.10429059	     89.13279579	    -14.57972708	     -4.51237964	     94.52226003	      1.64972465	     27.10423116	    -10.09732971	     -7.49999987	     91.84802356	    -10.53519073	      0.87370158	     94.76099953	      1.65389144	     29.33020936	     -2.52890092	     -7.49999987	    -34.42724839	      0.21446211	      2.18398019	     96.65664944	    -22.77426238	     34.76701208	    113.37145973	     99.82018932	     96.53282053	    -22.46670256	     40.44176124	    111.21342413	     95.58946826
